<mxfile host="app.diagrams.net" modified="2024-03-26T18:47:44.050Z" agent="Mozilla/5.0 (Macintosh; Intel Mac OS X 10_15_7) AppleWebKit/537.36 (KHTML, like Gecko) Chrome/123.0.0.0 Safari/537.36" etag="pBA_jWC7Mrey8exCDH28" version="24.2.0" type="device">
  <diagram name="Page-1" id="asDb9vwDrI2UDKZ7b16t">
    <mxGraphModel dx="1434" dy="795" grid="1" gridSize="10" guides="1" tooltips="1" connect="1" arrows="1" fold="1" page="1" pageScale="1" pageWidth="850" pageHeight="1100" background="#000000" math="0" shadow="0">
      <root>
        <mxCell id="0" />
        <mxCell id="1" parent="0" />
        <mxCell id="iA0Zp6hCPLZcMNGEjemQ-2" value="&lt;h1 style=&quot;&quot;&gt;&lt;br&gt;&lt;/h1&gt;" style="whiteSpace=wrap;html=1;aspect=fixed;align=center;" vertex="1" parent="1">
          <mxGeometry x="65" y="80" width="730" height="730" as="geometry" />
        </mxCell>
        <mxCell id="iA0Zp6hCPLZcMNGEjemQ-3" value="" style="endArrow=none;html=1;rounded=0;exitX=-0.003;exitY=0.293;exitDx=0;exitDy=0;exitPerimeter=0;entryX=1.003;entryY=0.294;entryDx=0;entryDy=0;entryPerimeter=0;" edge="1" parent="1">
          <mxGeometry width="50" height="50" relative="1" as="geometry">
            <mxPoint x="69.99999999999991" y="160.00000000000006" as="sourcePoint" />
            <mxPoint x="794.3199999999998" y="160.72000000000008" as="targetPoint" />
          </mxGeometry>
        </mxCell>
        <mxCell id="iA0Zp6hCPLZcMNGEjemQ-5" value="&lt;h1&gt;My Campus Marketplace&lt;/h1&gt;" style="whiteSpace=wrap;html=1;align=center;" vertex="1" parent="1">
          <mxGeometry x="220" y="90" width="410" height="60" as="geometry" />
        </mxCell>
        <mxCell id="iA0Zp6hCPLZcMNGEjemQ-6" value="&lt;font style=&quot;font-size: 10px;&quot;&gt;Welcome, (user)&lt;/font&gt;" style="text;strokeColor=none;fillColor=none;spacingLeft=4;spacingRight=4;overflow=hidden;rotatable=0;points=[[0,0.5],[1,0.5]];portConstraint=eastwest;fontSize=12;whiteSpace=wrap;html=1;" vertex="1" parent="1">
          <mxGeometry x="650" y="80" width="110" height="30" as="geometry" />
        </mxCell>
        <mxCell id="iA0Zp6hCPLZcMNGEjemQ-7" value="" style="html=1;verticalLabelPosition=bottom;align=center;labelBackgroundColor=#ffffff;verticalAlign=top;strokeWidth=2;strokeColor=#0080F0;shadow=0;dashed=0;shape=mxgraph.ios7.icons.home;" vertex="1" parent="1">
          <mxGeometry x="100" y="100" width="30" height="30" as="geometry" />
        </mxCell>
        <mxCell id="iA0Zp6hCPLZcMNGEjemQ-12" value="" style="endArrow=none;html=1;rounded=0;" edge="1" parent="1">
          <mxGeometry relative="1" as="geometry">
            <mxPoint x="710" y="120" as="sourcePoint" />
            <mxPoint x="670" y="120" as="targetPoint" />
          </mxGeometry>
        </mxCell>
        <mxCell id="iA0Zp6hCPLZcMNGEjemQ-18" value="My Listings" style="text;strokeColor=none;fillColor=none;spacingLeft=4;spacingRight=4;overflow=hidden;rotatable=0;points=[[0,0.5],[1,0.5]];portConstraint=eastwest;fontSize=10;whiteSpace=wrap;html=1;" vertex="1" parent="1">
          <mxGeometry x="660" y="100" width="90" height="20" as="geometry" />
        </mxCell>
        <mxCell id="iA0Zp6hCPLZcMNGEjemQ-20" value="" style="shape=table;startSize=0;container=1;collapsible=1;childLayout=tableLayout;fixedRows=1;rowLines=0;fontStyle=0;align=center;resizeLast=1;strokeColor=none;fillColor=none;collapsible=0;whiteSpace=wrap;html=1;fontSize=10;" vertex="1" parent="1">
          <mxGeometry x="630" y="120" width="120" height="30" as="geometry" />
        </mxCell>
        <mxCell id="iA0Zp6hCPLZcMNGEjemQ-21" value="" style="shape=tableRow;horizontal=0;startSize=0;swimlaneHead=0;swimlaneBody=0;fillColor=none;collapsible=0;dropTarget=0;points=[[0,0.5],[1,0.5]];portConstraint=eastwest;top=0;left=0;right=0;bottom=0;" vertex="1" parent="iA0Zp6hCPLZcMNGEjemQ-20">
          <mxGeometry width="120" height="30" as="geometry" />
        </mxCell>
        <mxCell id="iA0Zp6hCPLZcMNGEjemQ-22" value="" style="shape=partialRectangle;connectable=0;fillColor=none;top=0;left=0;bottom=0;right=0;editable=1;overflow=hidden;" vertex="1" parent="iA0Zp6hCPLZcMNGEjemQ-21">
          <mxGeometry width="30" height="30" as="geometry">
            <mxRectangle width="30" height="30" as="alternateBounds" />
          </mxGeometry>
        </mxCell>
        <mxCell id="iA0Zp6hCPLZcMNGEjemQ-23" value="Sign Out" style="shape=partialRectangle;connectable=0;fillColor=none;top=0;left=0;bottom=0;right=0;align=left;spacingLeft=6;overflow=hidden;fontSize=10;" vertex="1" parent="iA0Zp6hCPLZcMNGEjemQ-21">
          <mxGeometry x="30" width="90" height="30" as="geometry">
            <mxRectangle width="90" height="30" as="alternateBounds" />
          </mxGeometry>
        </mxCell>
        <mxCell id="iA0Zp6hCPLZcMNGEjemQ-25" value="&lt;p&gt;&lt;br&gt;&lt;/p&gt;" style="whiteSpace=wrap;html=1;align=center;" vertex="1" parent="1">
          <mxGeometry x="120" y="200" width="610" height="60" as="geometry" />
        </mxCell>
        <mxCell id="iA0Zp6hCPLZcMNGEjemQ-26" value="&lt;p&gt;&lt;br&gt;&lt;/p&gt;" style="whiteSpace=wrap;html=1;align=center;" vertex="1" parent="1">
          <mxGeometry x="120" y="290" width="610" height="60" as="geometry" />
        </mxCell>
        <mxCell id="iA0Zp6hCPLZcMNGEjemQ-27" value="&lt;p&gt;&lt;br&gt;&lt;/p&gt;" style="whiteSpace=wrap;html=1;align=center;" vertex="1" parent="1">
          <mxGeometry x="120" y="370" width="610" height="60" as="geometry" />
        </mxCell>
        <mxCell id="iA0Zp6hCPLZcMNGEjemQ-28" value="&lt;p&gt;&lt;br&gt;&lt;/p&gt;" style="whiteSpace=wrap;html=1;align=center;" vertex="1" parent="1">
          <mxGeometry x="120" y="450" width="610" height="60" as="geometry" />
        </mxCell>
        <mxCell id="iA0Zp6hCPLZcMNGEjemQ-29" value="&lt;p&gt;&lt;br&gt;&lt;/p&gt;" style="whiteSpace=wrap;html=1;align=center;" vertex="1" parent="1">
          <mxGeometry x="120" y="530" width="610" height="60" as="geometry" />
        </mxCell>
        <mxCell id="iA0Zp6hCPLZcMNGEjemQ-30" value="&lt;p&gt;&lt;br&gt;&lt;/p&gt;" style="whiteSpace=wrap;html=1;align=center;" vertex="1" parent="1">
          <mxGeometry x="120" y="610" width="610" height="60" as="geometry" />
        </mxCell>
        <mxCell id="iA0Zp6hCPLZcMNGEjemQ-31" value="&lt;p&gt;&lt;br&gt;&lt;/p&gt;" style="whiteSpace=wrap;html=1;align=center;" vertex="1" parent="1">
          <mxGeometry x="120" y="690" width="610" height="60" as="geometry" />
        </mxCell>
        <mxCell id="iA0Zp6hCPLZcMNGEjemQ-32" value="" style="shape=image;html=1;verticalAlign=top;verticalLabelPosition=bottom;labelBackgroundColor=#ffffff;imageAspect=0;aspect=fixed;image=https://cdn2.iconfinder.com/data/icons/tango/32x32/mimetypes/image-x-generic.png" vertex="1" parent="1">
          <mxGeometry x="130" y="200" width="60" height="60" as="geometry" />
        </mxCell>
        <mxCell id="iA0Zp6hCPLZcMNGEjemQ-33" value="" style="shape=image;html=1;verticalAlign=top;verticalLabelPosition=bottom;labelBackgroundColor=#ffffff;imageAspect=0;aspect=fixed;image=https://cdn2.iconfinder.com/data/icons/tango/32x32/mimetypes/image-x-generic.png" vertex="1" parent="1">
          <mxGeometry x="130" y="290" width="60" height="60" as="geometry" />
        </mxCell>
        <mxCell id="iA0Zp6hCPLZcMNGEjemQ-34" value="" style="shape=image;html=1;verticalAlign=top;verticalLabelPosition=bottom;labelBackgroundColor=#ffffff;imageAspect=0;aspect=fixed;image=https://cdn2.iconfinder.com/data/icons/tango/32x32/mimetypes/image-x-generic.png" vertex="1" parent="1">
          <mxGeometry x="130" y="370" width="60" height="60" as="geometry" />
        </mxCell>
        <mxCell id="iA0Zp6hCPLZcMNGEjemQ-35" value="" style="shape=image;html=1;verticalAlign=top;verticalLabelPosition=bottom;labelBackgroundColor=#ffffff;imageAspect=0;aspect=fixed;image=https://cdn2.iconfinder.com/data/icons/tango/32x32/mimetypes/image-x-generic.png" vertex="1" parent="1">
          <mxGeometry x="130" y="450" width="60" height="60" as="geometry" />
        </mxCell>
        <mxCell id="iA0Zp6hCPLZcMNGEjemQ-36" value="" style="shape=image;html=1;verticalAlign=top;verticalLabelPosition=bottom;labelBackgroundColor=#ffffff;imageAspect=0;aspect=fixed;image=https://cdn2.iconfinder.com/data/icons/tango/32x32/mimetypes/image-x-generic.png" vertex="1" parent="1">
          <mxGeometry x="130" y="530" width="60" height="60" as="geometry" />
        </mxCell>
        <mxCell id="iA0Zp6hCPLZcMNGEjemQ-37" value="" style="shape=image;html=1;verticalAlign=top;verticalLabelPosition=bottom;labelBackgroundColor=#ffffff;imageAspect=0;aspect=fixed;image=https://cdn2.iconfinder.com/data/icons/tango/32x32/mimetypes/image-x-generic.png" vertex="1" parent="1">
          <mxGeometry x="130" y="610" width="60" height="60" as="geometry" />
        </mxCell>
        <mxCell id="iA0Zp6hCPLZcMNGEjemQ-38" value="" style="shape=image;html=1;verticalAlign=top;verticalLabelPosition=bottom;labelBackgroundColor=#ffffff;imageAspect=0;aspect=fixed;image=https://cdn2.iconfinder.com/data/icons/tango/32x32/mimetypes/image-x-generic.png" vertex="1" parent="1">
          <mxGeometry x="130" y="690" width="60" height="60" as="geometry" />
        </mxCell>
        <mxCell id="iA0Zp6hCPLZcMNGEjemQ-39" value="Item Name" style="whiteSpace=wrap;html=1;align=center;" vertex="1" parent="1">
          <mxGeometry x="210" y="210" width="140" height="40" as="geometry" />
        </mxCell>
        <mxCell id="iA0Zp6hCPLZcMNGEjemQ-40" value="Item condition" style="whiteSpace=wrap;html=1;align=center;" vertex="1" parent="1">
          <mxGeometry x="380" y="210" width="140" height="40" as="geometry" />
        </mxCell>
        <mxCell id="iA0Zp6hCPLZcMNGEjemQ-41" value="Item price" style="whiteSpace=wrap;html=1;align=center;" vertex="1" parent="1">
          <mxGeometry x="550" y="210" width="140" height="40" as="geometry" />
        </mxCell>
        <mxCell id="iA0Zp6hCPLZcMNGEjemQ-42" value="" style="shape=image;html=1;verticalAlign=top;verticalLabelPosition=bottom;labelBackgroundColor=#ffffff;imageAspect=0;aspect=fixed;image=https://cdn4.iconfinder.com/data/icons/ionicons/512/icon-refresh-128.png" vertex="1" parent="1">
          <mxGeometry x="740" y="750" width="45" height="45" as="geometry" />
        </mxCell>
        <mxCell id="iA0Zp6hCPLZcMNGEjemQ-43" value="" style="endArrow=none;html=1;rounded=0;" edge="1" parent="1">
          <mxGeometry width="50" height="50" relative="1" as="geometry">
            <mxPoint x="670" y="140" as="sourcePoint" />
            <mxPoint x="710" y="140" as="targetPoint" />
          </mxGeometry>
        </mxCell>
        <mxCell id="iA0Zp6hCPLZcMNGEjemQ-45" value="Item Name" style="whiteSpace=wrap;html=1;align=center;" vertex="1" parent="1">
          <mxGeometry x="210" y="300" width="140" height="40" as="geometry" />
        </mxCell>
        <mxCell id="iA0Zp6hCPLZcMNGEjemQ-46" value="Item condition" style="whiteSpace=wrap;html=1;align=center;" vertex="1" parent="1">
          <mxGeometry x="380" y="300" width="140" height="40" as="geometry" />
        </mxCell>
        <mxCell id="iA0Zp6hCPLZcMNGEjemQ-47" value="Item price" style="whiteSpace=wrap;html=1;align=center;" vertex="1" parent="1">
          <mxGeometry x="550" y="300" width="140" height="40" as="geometry" />
        </mxCell>
        <mxCell id="iA0Zp6hCPLZcMNGEjemQ-48" value="" style="verticalLabelPosition=bottom;shadow=0;dashed=0;align=center;html=1;verticalAlign=top;strokeWidth=1;shape=mxgraph.mockup.navigation.scrollBar;strokeColor=#999999;barPos=99;fillColor2=#99ddff;strokeColor2=none;direction=north;" vertex="1" parent="1">
          <mxGeometry x="765" y="200" width="20" height="500" as="geometry" />
        </mxCell>
        <mxCell id="iA0Zp6hCPLZcMNGEjemQ-49" value="Item Name" style="whiteSpace=wrap;html=1;align=center;" vertex="1" parent="1">
          <mxGeometry x="210" y="380" width="140" height="40" as="geometry" />
        </mxCell>
        <mxCell id="iA0Zp6hCPLZcMNGEjemQ-50" value="Item condition" style="whiteSpace=wrap;html=1;align=center;" vertex="1" parent="1">
          <mxGeometry x="380" y="380" width="140" height="40" as="geometry" />
        </mxCell>
        <mxCell id="iA0Zp6hCPLZcMNGEjemQ-51" value="Item price" style="whiteSpace=wrap;html=1;align=center;" vertex="1" parent="1">
          <mxGeometry x="550" y="380" width="140" height="40" as="geometry" />
        </mxCell>
        <mxCell id="iA0Zp6hCPLZcMNGEjemQ-52" value="Item Name" style="whiteSpace=wrap;html=1;align=center;" vertex="1" parent="1">
          <mxGeometry x="210" y="460" width="140" height="40" as="geometry" />
        </mxCell>
        <mxCell id="iA0Zp6hCPLZcMNGEjemQ-53" value="Item Name" style="whiteSpace=wrap;html=1;align=center;" vertex="1" parent="1">
          <mxGeometry x="210" y="540" width="140" height="40" as="geometry" />
        </mxCell>
        <mxCell id="iA0Zp6hCPLZcMNGEjemQ-54" value="Item Name" style="whiteSpace=wrap;html=1;align=center;" vertex="1" parent="1">
          <mxGeometry x="210" y="620" width="140" height="40" as="geometry" />
        </mxCell>
        <mxCell id="iA0Zp6hCPLZcMNGEjemQ-55" value="Item Name" style="whiteSpace=wrap;html=1;align=center;" vertex="1" parent="1">
          <mxGeometry x="210" y="700" width="140" height="40" as="geometry" />
        </mxCell>
        <mxCell id="iA0Zp6hCPLZcMNGEjemQ-56" value="Item condition" style="whiteSpace=wrap;html=1;align=center;" vertex="1" parent="1">
          <mxGeometry x="380" y="460" width="140" height="40" as="geometry" />
        </mxCell>
        <mxCell id="iA0Zp6hCPLZcMNGEjemQ-57" value="Item condition" style="whiteSpace=wrap;html=1;align=center;" vertex="1" parent="1">
          <mxGeometry x="380" y="540" width="140" height="40" as="geometry" />
        </mxCell>
        <mxCell id="iA0Zp6hCPLZcMNGEjemQ-58" value="Item condition" style="whiteSpace=wrap;html=1;align=center;" vertex="1" parent="1">
          <mxGeometry x="380" y="620" width="140" height="40" as="geometry" />
        </mxCell>
        <mxCell id="iA0Zp6hCPLZcMNGEjemQ-59" value="Item condition" style="whiteSpace=wrap;html=1;align=center;" vertex="1" parent="1">
          <mxGeometry x="380" y="700" width="140" height="40" as="geometry" />
        </mxCell>
        <mxCell id="iA0Zp6hCPLZcMNGEjemQ-60" value="Item price" style="whiteSpace=wrap;html=1;align=center;" vertex="1" parent="1">
          <mxGeometry x="550" y="460" width="140" height="40" as="geometry" />
        </mxCell>
        <mxCell id="iA0Zp6hCPLZcMNGEjemQ-61" value="Item price" style="whiteSpace=wrap;html=1;align=center;" vertex="1" parent="1">
          <mxGeometry x="550" y="540" width="140" height="40" as="geometry" />
        </mxCell>
        <mxCell id="iA0Zp6hCPLZcMNGEjemQ-62" value="Item price" style="whiteSpace=wrap;html=1;align=center;" vertex="1" parent="1">
          <mxGeometry x="550" y="620" width="140" height="40" as="geometry" />
        </mxCell>
        <mxCell id="iA0Zp6hCPLZcMNGEjemQ-63" value="Item price" style="whiteSpace=wrap;html=1;align=center;" vertex="1" parent="1">
          <mxGeometry x="550" y="700" width="140" height="40" as="geometry" />
        </mxCell>
      </root>
    </mxGraphModel>
  </diagram>
</mxfile>
